<svg width="64" height="48" viewBox="0 0 64 48" fill="none" xmlns="http://www.w3.org/2000/svg">
<g clip-path="url(#clip0_99_8050)">
<path d="M61 28.9805C60.4473 28.9805 60 29.3163 60 29.7305V45.7504C60 46.1638 59.5518 46.5004 59 46.5004H5C4.44873 46.5004 4 46.1638 4 45.7504V29.7305C4 29.3163 3.55225 28.9805 3 28.9805C2.44775 28.9805 2 29.3163 2 29.7305V45.7504C2 46.9911 3.3457 48.0004 5 48.0004H59C60.6543 48.0004 62 46.9911 62 45.7504V29.7305C62 29.3163 61.5527 28.9805 61 28.9805Z" fill="#FF5555"/>
<path d="M60 9.75H45V4.5C45 2.01855 42.3086 0 39 0H25C21.6914 0 19 2.01855 19 4.5V9.75H4C1.79443 9.75 0 11.0958 0 12.75V24.5101C0 25.8772 1.23389 27.0703 3 27.4113L25.5769 31.7816C24.6427 32.1632 24 32.8975 24 33.75C24 34.7265 24.8385 35.5512 26 35.8618V37.14C26 37.5919 26.2837 38.0303 26.7554 38.3104L30.7529 40.7091C31.1143 40.9277 31.5576 41.0365 32.001 41.0365C32.4429 41.0365 32.8848 40.9277 33.2451 40.7106L37.2402 38.3134C37.7158 38.031 38 37.5927 38 37.14V35.8618C39.1615 35.5512 40 34.7265 40 33.75C40 32.8975 39.3573 32.1632 38.4231 31.7816L60.999 27.4113C62.7656 27.0703 64 25.8772 64 24.5101V12.75C64 11.0958 62.2061 9.75 60 9.75ZM21 4.5C21 2.84583 22.7944 1.5 25 1.5H39C41.2061 1.5 43 2.84583 43 4.5V9.75H40V4.5C40 4.08582 39.5527 3.75 39 3.75H25C24.4478 3.75 24 4.08582 24 4.5V9.75H21V4.5ZM38 9.75H26V5.25H38V9.75ZM4 11.25H60C61.1025 11.25 62 11.9227 62 12.75V14.25H2V12.75C2 11.9227 2.89697 11.25 4 11.25ZM36 31.5H28V27H36V31.5ZM32.0044 39.5394L28 37.14V36H35.998L35.9951 37.1393L32.0044 39.5394ZM37 34.5H27C26.4487 34.5 26 34.1635 26 33.75C26 33.3365 26.4487 33 27 33H37C37.5518 33 38 33.3365 38 33.75C38 34.1635 37.5518 34.5 37 34.5ZM60.5 25.9589L38 30.3143V27C38 26.1727 37.1025 25.5 36 25.5H28C26.897 25.5 26 26.1727 26 27V30.3143L3.49951 25.9589C2.6167 25.7882 2 25.1927 2 24.5101V15.75H62V24.5101C62 25.1927 61.3838 25.7882 60.5 25.9589Z" fill="#FF5555"/>
<path d="M18 44.25C18.5522 44.25 19 43.9142 19 43.5V39C19 38.5858 18.5522 38.25 18 38.25H8C7.44775 38.25 7 38.5858 7 39V43.5C7 43.9142 7.44775 44.25 8 44.25H18ZM9 39.75H17V42.75H9V39.75Z" fill="#FF5555"/>
</g>
<defs>
<clipPath id="clip0_99_8050">
<rect width="64" height="48" fill="white"/>
</clipPath>
</defs>
</svg>
