<?xml version="1.0" encoding="utf-8"?>
<!-- Generator: Adobe Illustrator 28.0.0, SVG Export Plug-In . SVG Version: 6.00 Build 0)  -->
<svg version="1.1" id="Layer_1" xmlns="http://www.w3.org/2000/svg" xmlns:xlink="http://www.w3.org/1999/xlink" x="0px" y="0px"
	 viewBox="0 0 340.2 64" style="enable-background:new 0 0 340.2 64;" xml:space="preserve">
<style type="text/css">
	.st0{fill:#FFFFFF;}
</style>
<path class="st0" d="M20.4,30.4h13.4L23.3,40.8c-0.7,0.7-1.7,1.1-2.7,1.1h-7.9c-2.1,0-3.8-1.7-3.8-3.8V15.4c0-2.1,1.7-3.8,3.8-3.8
	h31V2.7h-31C5.7,2.7,0,8.4,0,15.4v22.7c0,7,5.7,12.7,12.7,12.7h7.9c3.4,0,6.6-1.3,9-3.7L40,36.6V50h7.3V23.1H20.4L20.4,30.4
	L20.4,30.4z"/>
<path class="st0" d="M80.2,16.6c-2.5-1.5-5.5-2.3-8.9-2.3s-6.5,0.7-9.1,2.2c-2.6,1.5-4.7,3.5-6.1,6.2c-1.5,2.7-2.2,5.9-2.2,9.5V33
	c0,3.6,0.7,6.8,2.2,9.5c1.5,2.7,3.5,4.8,6.2,6.2c2.6,1.5,5.7,2.2,9.1,2.2c3.2,0,5.8-0.5,7.8-1.5c2.1-1,3.7-2.2,4.9-3.6
	c1.2-1.4,2.2-2.7,2.8-4l-7.2-3.8c-0.6,1.3-1.5,2.5-2.7,3.6c-1.2,1.1-3,1.6-5.5,1.6s-4.5-0.8-6.2-2.2s-2.6-3.4-2.7-5.8h25.3v-3
	c0-3.5-0.7-6.7-2.1-9.4C84.7,20.2,82.7,18.1,80.2,16.6L80.2,16.6z M63,28.6c0.3-2,1.2-3.6,2.6-4.8s3.3-1.8,5.7-1.8s4.1,0.6,5.6,1.8
	c1.4,1.2,2.2,2.8,2.4,4.8C79.2,28.6,62.9,28.6,63,28.6z"/>
<path class="st0" d="M120.4,16.4c-2.8-1.4-5.9-2.1-9.3-2.1s-6.6,0.7-9.3,2.1c-2.8,1.4-4.9,3.4-6.5,6.1c-1.6,2.7-2.4,5.9-2.4,9.6v1.1
	c0,3.7,0.8,6.9,2.4,9.6s3.8,4.7,6.5,6.1s5.9,2.1,9.3,2.1s6.6-0.7,9.3-2.1c2.8-1.4,4.9-3.4,6.5-6.1c1.6-2.7,2.4-5.9,2.4-9.6v-1.1
	c0-3.7-0.8-6.9-2.4-9.6C125.3,19.8,123.1,17.8,120.4,16.4z M120.4,33c0,3.3-0.9,5.8-2.7,7.5c-1.8,1.8-4,2.6-6.7,2.6
	s-4.9-0.9-6.7-2.6c-1.8-1.8-2.7-4.3-2.7-7.5v-0.7c0-3.3,0.9-5.8,2.7-7.5c1.8-1.8,4-2.6,6.7-2.6s5,0.9,6.8,2.6
	c1.8,1.8,2.6,4.3,2.6,7.5L120.4,33L120.4,33z"/>
<path class="st0" d="M161.8,19.5h-1.3c-0.8-1.2-1.9-2.4-3.6-3.5c-1.6-1.1-4-1.7-7.2-1.7c-2.9,0-5.5,0.7-7.9,2.1
	c-2.4,1.4-4.3,3.4-5.8,5.9S134,28,134,31.7v1.1c0,3.6,0.7,6.8,2.2,9.3c1.4,2.6,3.4,4.6,5.8,6c2.4,1.4,5,2.1,7.9,2.1
	c2.1,0,3.9-0.3,5.3-0.8c1.4-0.5,2.5-1.2,3.4-1.9s1.5-1.5,2-2.3h1.3v9c0,1.4-0.6,2.1-2,2.1h-20.2V64h23.2c2.3,0,4.2-0.7,5.6-2.1
	c1.4-1.4,2.1-3.3,2.1-5.7V15.3h-8.7C161.8,15.3,161.8,19.5,161.8,19.5z M161.8,32.6c0,3.1-0.9,5.6-2.7,7.3c-1.8,1.7-4.1,2.6-6.8,2.6
	s-5-0.9-6.8-2.6c-1.8-1.7-2.7-4.2-2.7-7.3v-0.7c0-3.2,0.9-5.6,2.7-7.3c1.8-1.7,4.1-2.6,6.8-2.6s5,0.9,6.8,2.6
	c1.8,1.7,2.7,4.1,2.7,7.3L161.8,32.6L161.8,32.6z"/>
<path class="st0" d="M203.4,16.6c-2.5-1.5-5.5-2.3-8.9-2.3s-6.5,0.7-9.1,2.2c-2.6,1.5-4.6,3.5-6.1,6.2c-1.4,2.7-2.2,5.9-2.2,9.5V33
	c0,3.6,0.7,6.8,2.2,9.5c1.5,2.7,3.5,4.8,6.2,6.2c2.6,1.5,5.7,2.2,9.1,2.2c3.2,0,5.8-0.5,7.8-1.5c2.1-1,3.7-2.2,4.9-3.6
	s2.2-2.7,2.8-4l-7.2-3.8c-0.6,1.3-1.5,2.5-2.7,3.6s-3,1.6-5.5,1.6s-4.5-0.8-6.2-2.2c-1.7-1.5-2.6-3.4-2.7-5.8h25.3v-3
	c0-3.5-0.7-6.7-2.1-9.4C207.9,20.2,206,18.1,203.4,16.6L203.4,16.6z M186.2,28.6c0.3-2,1.2-3.6,2.6-4.8s3.3-1.8,5.7-1.8
	s4.1,0.6,5.6,1.8c1.4,1.2,2.2,2.8,2.4,4.8H186.2z"/>
<path class="st0" d="M245.3,16.6c-2-1.2-4.4-1.9-7.1-1.9c-3.1,0-5.5,0.6-7,1.7s-2.6,2.2-3.1,3.5h-1.3v-4.6h-8.7V50h8.8V32.4
	c0-3.2,0.8-5.7,2.2-7.5c1.5-1.8,3.6-2.7,6.3-2.7c2.4,0,4.2,0.6,5.5,2c1.3,1.3,1.9,3.3,1.9,5.9v20h8.8V29.3c0-2.9-0.6-5.4-1.7-7.6
	S247.3,17.8,245.3,16.6L245.3,16.6z"/>
<path class="st0" d="M272.9,4.5h-8.8v10.8h-8.7v7.3h8.7v19.6c0,2.4,0.7,4.3,2.1,5.7c1.4,1.4,3.3,2.1,5.6,2.1h9.8v-7.3h-6.7
	c-1.3,0-2-0.7-2-2.1V22.6h9.5v-7.3H273L272.9,4.5L272.9,4.5z"/>
<path class="st0" d="M293.4,0c-1.6,0-2.9,0.5-4,1.5s-1.6,2.4-1.6,4.1s0.5,3,1.6,4.1c1.1,1,2.4,1.5,4,1.5s3-0.5,4.1-1.5
	s1.6-2.4,1.6-4.1s-0.5-3-1.6-4.1C296.4,0.5,295,0,293.4,0z"/>
<rect x="289" y="15.3" class="st0" width="8.8" height="34.7"/>
<path class="st0" d="M337.4,42.7c-1.3,0-2-0.7-2-2.1v-13c0-4.3-1.3-7.7-4-10s-6.3-3.4-10.9-3.4c-3,0-5.5,0.5-7.6,1.4
	c-2.1,0.9-3.7,2.1-5,3.6c-1.2,1.5-2.1,3.1-2.7,4.9l8.1,2.7c0.3-1.6,1-2.9,2.1-3.9c1.1-1,2.7-1.5,4.9-1.5s3.9,0.5,4.9,1.6
	c1,1,1.5,2.4,1.5,4v2h-9.5c-2.6,0-4.9,0.4-7,1.2s-3.6,2-4.8,3.6s-1.7,3.6-1.7,6s0.6,4.4,1.7,6.1c1.1,1.7,2.7,2.9,4.7,3.8
	c2,0.9,4.2,1.3,6.6,1.3s4.3-0.3,5.7-1s2.4-1.5,3.1-2.4c0.6-0.9,1.1-1.7,1.3-2.2h1.3v0.1c0,1.4,0.6,2.5,1.7,3.4s2.5,1.3,4.3,1.3h5.9
	v-7.3L337.4,42.7L337.4,42.7z M326.8,36.3c0,2.3-0.8,4.1-2.4,5.5c-1.6,1.4-3.6,2.1-6.1,2.1c-1.9,0-3.3-0.4-4.3-1.2
	c-1-0.8-1.5-1.8-1.5-3.1s0.5-2.2,1.4-2.9c0.9-0.7,2.2-1,3.9-1h8.9L326.8,36.3L326.8,36.3z"/>
</svg>
