<svg width="48" height="48" viewBox="0 0 48 48" fill="none" xmlns="http://www.w3.org/2000/svg">
<g clip-path="url(#clip0_99_8001)">
<path d="M23.3892 41.0156H21.9733V48.0008H23.3892V41.0156Z" fill="#FF5555"/>
<path d="M6.3976 28.7441H4.98169V48.0008H6.3976V28.7441Z" fill="#FF5555"/>
<path d="M23.6247 20.9557H23.1574L25.1171 18.1239H22.2022L23.6755 13.8761H20.3236V12.5546H26.126V9.67556C26.126 8.50453 25.1732 7.55166 24.0021 7.55166H21.2303L20.5423 2.32303C20.3682 0.998719 19.2295 0 17.8937 0C16.7961 0 15.7941 0.688125 15.4001 1.71253C15.2295 2.15616 14.7955 2.45428 14.3201 2.45428H14.0502C13.5748 2.45428 13.1408 2.15616 12.9702 1.71253C12.5762 0.688125 11.5742 0 10.4767 0H10.4102C9.08068 0 7.94275 0.993281 7.76312 2.31056L7.04828 7.55156H4.17925C3.00822 7.55156 2.05534 8.50434 2.05534 9.67547V12.5545H7.98822V13.876H4.69956L6.15081 18.1238H3.26218L5.19915 20.9557H4.74578C2.27547 20.9557 0.265747 22.9672 0.265747 25.4394V48H1.68165V25.4395C1.68165 23.7479 3.05622 22.3717 4.74568 22.3717H6.16759L11.2618 29.8192C11.7853 30.5846 12.5846 31.1013 13.4773 31.2745V48H14.8932V31.2561C15.7449 31.0684 16.5064 30.5671 17.0131 29.8348L22.1777 22.3717H23.6249C24.7159 22.3717 25.7331 22.9595 26.2795 23.9056L27.5057 23.1974C26.707 21.8148 25.22 20.9557 23.6247 20.9557ZM9.16609 2.50181C9.25047 1.88269 9.78531 1.41591 10.4102 1.41591H10.4767C10.9926 1.41591 11.4635 1.73944 11.6487 2.22075C12.0282 3.20738 12.9932 3.87019 14.0503 3.87019H14.3202C15.3772 3.87019 16.3423 3.20738 16.7217 2.22075C16.9069 1.73934 17.3778 1.41591 17.8937 1.41591C18.5214 1.41591 19.0566 1.88531 19.1386 2.50772L19.7968 7.51013H8.48303L9.16609 2.50181ZM3.47134 11.1386V9.67547C3.47134 9.28509 3.78887 8.96747 4.17934 8.96747H24.0023C24.3927 8.96747 24.7103 9.285 24.7103 9.67547V11.1386H3.47134ZM5.94606 19.5398H8.1309L6.67965 15.292H7.98812V15.4706C7.98812 16.267 8.42734 16.9896 9.1345 17.3561L10.079 17.8459V21.7375L11.2483 27.2917L5.94606 19.5398ZM16.8753 21.5857L15.2097 29.0536C15.1037 29.5568 14.654 29.9222 14.1398 29.9231C14.1355 29.9231 14.1312 29.9227 14.1269 29.9227C13.6168 29.9177 13.1716 29.5539 13.0663 29.0537L11.4949 21.5901V18.5801L13.1727 19.45C13.4791 19.609 13.8147 19.6882 14.1502 19.6882C14.4906 19.6882 14.8312 19.6065 15.141 19.4431L16.8752 18.5286L16.8753 21.5857ZM14.481 18.1906C14.2757 18.2988 14.0305 18.2994 13.8247 18.1928L9.78643 16.0989C9.55075 15.9767 9.40431 15.7359 9.40431 15.4704V12.5544H18.9079V15.429C18.9079 15.6924 18.7632 15.9324 18.5302 16.0553L14.481 18.1906ZM17.0546 27.2869L18.2914 21.7418V17.782L19.1907 17.3078C19.8896 16.9392 20.3238 16.2194 20.3238 15.4292V15.292H21.6858L20.2126 19.5398H22.4156L17.0546 27.2869Z" fill="#FF5555"/>
<path d="M43.0982 13.412C40.0617 10.3757 35.1212 10.3757 32.0847 13.412C29.0484 16.4484 29.0484 21.389 32.0847 24.4254C33.603 25.9436 35.5971 26.7027 37.5915 26.7027C39.5857 26.7027 41.58 25.9436 43.0983 24.4254V24.4253C46.1346 21.389 46.1345 16.4484 43.0982 13.412ZM42.0969 23.4241C39.6128 25.9085 35.5703 25.9084 33.0861 23.4242C30.6018 20.9398 30.6018 16.8974 33.0861 14.4132C34.3282 13.171 35.9599 12.5499 37.5915 12.5499C39.2231 12.5499 40.8547 13.171 42.0968 14.4132C44.5812 16.8975 44.5812 20.9398 42.0969 23.4241Z" fill="#FF5555"/>
<path d="M44.7669 11.7445C40.8104 7.78809 34.3725 7.78847 30.4162 11.7445C28.6878 13.473 27.6414 15.7661 27.4695 18.2015C27.314 20.4068 27.8808 22.5976 29.0723 24.4357L27.3458 26.1622L26.6783 25.4947L16.6663 35.5068L21.0048 39.8453L31.0169 29.8333L30.3494 29.1658L32.0758 27.4394C33.9139 28.6309 36.1042 29.1975 38.31 29.0422C40.7455 28.8703 43.0386 27.8239 44.767 26.0955C48.7233 22.1388 48.7233 15.7012 44.7669 11.7445ZM21.0047 37.8429L18.6686 35.5068L26.6783 27.4971L29.0144 29.8332L21.0047 37.8429ZM43.7657 25.0942C40.7354 28.1246 35.8549 28.4931 32.4133 25.9518L31.923 25.5898L29.3482 28.1647L28.347 27.1634L30.9219 24.5886L30.5599 24.0983C28.0184 20.6568 28.3871 15.7763 31.4175 12.746C34.8217 9.34153 40.3614 9.34144 43.7657 12.746C47.1701 16.1503 47.1701 21.6898 43.7657 25.0942Z" fill="#FF5555"/>
<path d="M37.3901 18.0535L36.3889 19.0547L37.3901 20.0559L38.3913 19.0547L37.3901 18.0535Z" fill="#FF5555"/>
<path d="M39.3936 20.0555L38.3925 21.0566L39.3936 22.0578L40.3948 21.0566L39.3936 20.0555Z" fill="#FF5555"/>
<path d="M35.3881 16.0496L34.387 17.0508L35.3881 18.052L36.3893 17.0508L35.3881 16.0496Z" fill="#FF5555"/>
<path d="M28.1052 35.8223H26.6893V47.9993H28.1052V35.8223Z" fill="#FF5555"/>
</g>
<defs>
<clipPath id="clip0_99_8001">
<rect width="48" height="48" fill="white"/>
</clipPath>
</defs>
</svg>
