<svg width="48" height="48" viewBox="0 0 48 48" fill="none" xmlns="http://www.w3.org/2000/svg">
<g clip-path="url(#clip0_99_8036)">
<path d="M44.9005 41.8012H44.1674C44.3302 41.4691 44.4218 41.0959 44.4218 40.7017C44.4218 39.3745 43.3846 38.2849 42.0781 38.201V21.2136C43.3846 21.1298 44.4218 20.0403 44.4218 18.713C44.4218 18.3187 44.3302 17.9454 44.1674 17.6134H45.3941C46.5805 17.6134 47.589 16.8442 47.9035 15.6993C48.2183 14.5534 47.7438 13.3759 46.7228 12.7692L26.2984 0.631823C24.8808 -0.210608 23.1196 -0.210608 21.702 0.631823L13.6334 5.42672C13.2995 5.6251 13.1897 6.05653 13.3881 6.39037C13.5866 6.72431 14.0181 6.8339 14.3518 6.63562L22.4204 1.84081C23.3949 1.26172 24.6056 1.26172 25.58 1.84081L46.0045 13.9781C46.5836 14.3222 46.6647 14.9005 46.5476 15.3268C46.4306 15.7525 46.0663 16.2072 45.3942 16.2072H2.6061C1.93401 16.2072 1.56961 15.7525 1.4527 15.3268C1.33552 14.9005 1.4167 14.3222 1.99579 13.9781L11.9648 8.05395C12.2986 7.85558 12.4084 7.42414 12.2101 7.0903C12.0118 6.75656 11.5803 6.64678 11.2464 6.84506L1.27739 12.7692C0.256367 13.3758 -0.218098 14.5534 0.0967121 15.6993C0.411241 16.8442 1.4197 17.6134 2.6061 17.6134H3.83281C3.66987 17.9455 3.57837 18.3187 3.57837 18.713C3.57837 20.0402 4.61561 21.1297 5.9221 21.2136V38.201C4.61561 38.2848 3.57837 39.3744 3.57837 40.7017C3.57837 41.0959 3.66997 41.4691 3.83281 41.8012H3.09969C1.39073 41.8012 0.000244141 43.1916 0.000244141 44.9007C0.000244141 46.6097 1.39064 48.0001 3.09969 48.0001H37.2315C37.6198 48.0001 37.9346 47.6853 37.9346 47.297C37.9346 46.9087 37.6198 46.5939 37.2315 46.5939H3.09978C2.16623 46.5939 1.40658 45.8343 1.40658 44.9007C1.40658 43.967 2.16613 43.2075 3.09978 43.2075H44.9006C45.8342 43.2075 46.5938 43.967 46.5938 44.9007C46.5938 45.8343 45.8343 46.5939 44.9006 46.5939H40.0292C39.6409 46.5939 39.3261 46.9087 39.3261 47.297C39.3261 47.6853 39.6409 48.0001 40.0292 48.0001H44.9006C46.6096 48.0001 48.0001 46.6097 48.0001 44.9007C48.0001 43.1916 46.6096 41.8012 44.9005 41.8012ZM36.0157 21.2189H40.672V38.1958H36.0157V21.2189ZM41.916 19.8126H34.7716C34.1652 19.8126 33.672 19.3193 33.672 18.7131C33.672 18.1068 34.1653 17.6135 34.7716 17.6135H41.916C42.5224 17.6135 43.0156 18.1068 43.0156 18.7131C43.0156 19.3193 42.5224 19.8126 41.916 19.8126ZM34.6095 21.2136V38.201C33.303 38.2848 32.2657 39.3744 32.2657 40.7017C32.2657 41.0959 32.3573 41.4691 32.5202 41.8012H29.8239C29.9867 41.4691 30.0783 41.0959 30.0783 40.7017C30.0783 39.3745 29.041 38.2849 27.7346 38.201V21.2136C29.041 21.1298 30.0783 20.0403 30.0783 18.713C30.0783 18.3187 29.9867 17.9454 29.8239 17.6134H32.5202C32.3572 17.9455 32.2657 18.3187 32.2657 18.713C32.2657 20.0403 33.303 21.1298 34.6095 21.2136ZM20.4279 17.6135H27.5724C28.1787 17.6135 28.672 18.1068 28.672 18.7131C28.672 19.3193 28.1786 19.8126 27.5724 19.8126H20.4279C19.8216 19.8126 19.3283 19.3193 19.3283 18.7131C19.3283 18.1068 19.8216 17.6135 20.4279 17.6135ZM21.6721 21.2189H26.3283V38.1958H21.6721V21.2189ZM18.1765 17.6134C18.0136 17.9455 17.9221 18.3187 17.9221 18.713C17.9221 20.0402 18.9593 21.1297 20.2658 21.2136V38.201C18.9593 38.2848 17.9221 39.3744 17.9221 40.7017C17.9221 41.0959 18.0137 41.4691 18.1765 41.8012H15.4802C15.6431 41.4691 15.7347 41.0959 15.7347 40.7017C15.7347 39.3745 14.6974 38.2849 13.3909 38.201V21.2136C14.6974 21.1298 15.7347 20.0403 15.7347 18.713C15.7347 18.3187 15.6431 17.9454 15.4802 17.6134H18.1765ZM7.32844 21.2189H11.9847V38.1958H7.32844V21.2189ZM4.98471 18.7131C4.98471 18.1068 5.47801 17.6135 6.08429 17.6135H13.2287C13.8351 17.6135 14.3283 18.1068 14.3283 18.7131C14.3283 19.3193 13.835 19.8126 13.2287 19.8126H6.08429C5.47792 19.8126 4.98471 19.3193 4.98471 18.7131ZM6.08429 41.8012C5.47792 41.8012 4.98471 41.3079 4.98471 40.7017C4.98471 40.0954 5.47801 39.6021 6.08429 39.6021H13.2287C13.8351 39.6021 14.3283 40.0954 14.3283 40.7017C14.3283 41.3079 13.835 41.8012 13.2287 41.8012H6.08429ZM20.4279 41.8012C19.8216 41.8012 19.3283 41.3079 19.3283 40.7017C19.3283 40.0954 19.8217 39.6021 20.4279 39.6021H27.5724C28.1787 39.6021 28.672 40.0954 28.672 40.7017C28.672 41.3079 28.1786 41.8012 27.5724 41.8012H20.4279ZM34.7716 41.8012C34.1652 41.8012 33.672 41.3079 33.672 40.7017C33.672 40.0954 34.1653 39.6021 34.7716 39.6021H41.916C42.5224 39.6021 43.0156 40.0954 43.0156 40.7017C43.0156 41.3079 42.5223 41.8012 41.916 41.8012H34.7716Z" fill="#FF5555"/>
<path d="M9.65649 23.9434C9.26818 23.9434 8.95337 24.2582 8.95337 24.6465V34.8652C8.95337 35.2535 9.26818 35.5684 9.65649 35.5684C10.0448 35.5684 10.3596 35.2535 10.3596 34.8652V24.6465C10.3596 24.2581 10.0448 23.9434 9.65649 23.9434Z" fill="#FF5555"/>
<path d="M38.3438 23.9434C37.9554 23.9434 37.6406 24.2582 37.6406 24.6465V34.8652C37.6406 35.2535 37.9554 35.5684 38.3438 35.5684C38.7321 35.5684 39.0469 35.2535 39.0469 34.8652V24.6465C39.0469 24.2581 38.7321 23.9434 38.3438 23.9434Z" fill="#FF5555"/>
<path d="M24 23.9434C23.6117 23.9434 23.2969 24.2582 23.2969 24.6465V34.8652C23.2969 35.2535 23.6117 35.5684 24 35.5684C24.3883 35.5684 24.7031 35.2535 24.7031 34.8652V24.6465C24.7031 24.2581 24.3883 23.9434 24 23.9434Z" fill="#FF5555"/>
<path d="M38.384 13.3457C38.384 12.9574 38.0692 12.6426 37.6809 12.6426L10.3193 12.6426C9.93099 12.6426 9.61618 12.9574 9.61618 13.3457C9.61618 13.734 9.93099 14.0488 10.3193 14.0488L37.6809 14.0488C38.0693 14.0488 38.384 13.734 38.384 13.3457Z" fill="#FF5555"/>
<path d="M28.2409 5.65684L24.8439 3.63821C24.3233 3.32893 23.6766 3.32893 23.1561 3.63821L19.7217 5.67915C19.3879 5.87752 19.2781 6.30896 19.4765 6.6428C19.764 6.99502 20.0852 7.07677 20.4401 6.88805L23.8745 4.84721C23.952 4.80118 24.0482 4.80118 24.1256 4.84721L27.5225 6.86584C27.8564 7.0643 28.2878 6.95434 28.4861 6.62059C28.6845 6.28665 28.5746 5.85521 28.2409 5.65684Z" fill="#FF5555"/>
</g>
<defs>
<clipPath id="clip0_99_8036">
<rect width="48" height="48" fill="white"/>
</clipPath>
</defs>
</svg>
